<?xml version="1.0" encoding="utf-8"?>
<!-- Generator: Adobe Illustrator 24.0.1, SVG Export Plug-In . SVG Version: 6.00 Build 0)  -->
<svg version="1.1" id="Layer_1" xmlns="http://www.w3.org/2000/svg" xmlns:xlink="http://www.w3.org/1999/xlink" x="0px" y="0px"
	 viewBox="0 0 273 50" style="enable-background:new 0 0 273 50;" xml:space="preserve">
<style type="text/css">
	.st0{fill:#D1D3D4;}
	.st1{fill:#808285;}
	.st2{fill:#004EEA;}
</style>
<g>
	<g>
		<path class="st0" d="M78.22,19.09c2.03,0,3.68-0.8,4.97-2.41l2.64,2.72c-2.1,2.36-4.57,3.54-7.42,3.54c-2.85,0-5.19-0.9-7.03-2.7
			c-1.84-1.8-2.76-4.07-2.76-6.81c0-2.74,0.94-5.03,2.82-6.86c1.88-1.83,4.17-2.75,6.89-2.75c3.03,0,5.57,1.15,7.61,3.46l-2.56,2.91
			c-1.3-1.62-2.93-2.43-4.86-2.43c-1.55,0-2.88,0.51-3.98,1.52c-1.1,1.01-1.65,2.38-1.65,4.1s0.52,3.1,1.56,4.14
			C75.48,18.57,76.74,19.09,78.22,19.09z"/>
		<path class="st0" d="M90.14,22.74V4.26h4.12v14.81h7.88v3.68H90.14z"/>
		<path class="st0" d="M120.89,20.19c-1.87,1.82-4.17,2.74-6.9,2.74c-2.73,0-5.03-0.91-6.9-2.74c-1.87-1.82-2.8-4.09-2.8-6.81
			c0-2.71,0.93-4.98,2.8-6.81c1.87-1.82,4.17-2.74,6.9-2.74c2.73,0,5.03,0.91,6.9,2.74c1.87,1.82,2.8,4.09,2.8,6.81
			C123.69,16.1,122.76,18.37,120.89,20.19z M119.49,13.39c0-1.65-0.53-3.05-1.59-4.22c-1.06-1.16-2.36-1.74-3.9-1.74
			c-1.54,0-2.84,0.58-3.9,1.74c-1.06,1.16-1.59,2.57-1.59,4.22c0,1.65,0.53,3.05,1.59,4.2c1.06,1.15,2.36,1.73,3.9,1.73
			c1.54,0,2.84-0.58,3.9-1.73C118.96,16.44,119.49,15.04,119.49,13.39z"/>
		<path class="st0" d="M136.2,19.09c2.03,0,3.68-0.8,4.97-2.41l2.64,2.72c-2.1,2.36-4.57,3.54-7.42,3.54c-2.85,0-5.19-0.9-7.03-2.7
			c-1.84-1.8-2.76-4.07-2.76-6.81c0-2.74,0.94-5.03,2.82-6.86c1.88-1.83,4.17-2.75,6.89-2.75c3.03,0,5.57,1.15,7.61,3.46l-2.56,2.91
			c-1.3-1.62-2.93-2.43-4.86-2.43c-1.55,0-2.88,0.51-3.98,1.52c-1.1,1.01-1.65,2.38-1.65,4.1s0.52,3.1,1.56,4.14
			C133.46,18.57,134.72,19.09,136.2,19.09z"/>
		<path class="st0" d="M148.65,4.26h4.12v7.59l6.98-7.59h5.1l-7.35,8.17c0.63,0.88,1.81,2.52,3.52,4.93
			c1.71,2.41,2.99,4.2,3.83,5.38h-4.81l-5.42-7.3l-1.85,2.06v5.23h-4.12V4.26z"/>
		<path class="st0" d="M174.77,14.89l3.28-10.63h4.31l3.25,10.63l3.68-10.63h4.47l-6.45,18.48h-3.07l-4.05-12.85l-4.02,12.85h-3.07
			l-6.45-18.48h4.47L174.77,14.89z"/>
		<path class="st0" d="M211.44,20.19c-1.87,1.82-4.17,2.74-6.9,2.74c-2.73,0-5.03-0.91-6.9-2.74c-1.87-1.82-2.8-4.09-2.8-6.81
			c0-2.71,0.93-4.98,2.8-6.81c1.87-1.82,4.17-2.74,6.9-2.74c2.73,0,5.03,0.91,6.9,2.74c1.87,1.82,2.8,4.09,2.8,6.81
			C214.24,16.1,213.31,18.37,211.44,20.19z M210.04,13.39c0-1.65-0.53-3.05-1.59-4.22c-1.06-1.16-2.36-1.74-3.9-1.74
			c-1.54,0-2.84,0.58-3.9,1.74c-1.06,1.16-1.59,2.57-1.59,4.22c0,1.65,0.53,3.05,1.59,4.2c1.06,1.15,2.36,1.73,3.9,1.73
			c1.54,0,2.84-0.58,3.9-1.73C209.51,16.44,210.04,15.04,210.04,13.39z"/>
		<path class="st0" d="M233.25,10.39c0,2.96-1.17,4.87-3.52,5.74l4.68,6.61h-5.08l-4.1-5.9h-2.86v5.9h-4.12V4.26h7.01
			c2.87,0,4.92,0.49,6.15,1.45C232.64,6.68,233.25,8.24,233.25,10.39z M228.28,12.59c0.51-0.46,0.77-1.19,0.77-2.18
			c0-1-0.26-1.68-0.79-2.05c-0.53-0.37-1.45-0.56-2.78-0.56h-3.09v5.47h3.01C226.81,13.28,227.77,13.05,228.28,12.59z"/>
		<path class="st0" d="M239.07,4.26h4.12v7.59l6.98-7.59h5.1l-7.35,8.17c0.63,0.88,1.81,2.52,3.52,4.93
			c1.71,2.41,2.99,4.2,3.83,5.38h-4.81l-5.42-7.3l-1.85,2.06v5.23h-4.12V4.26z"/>
		<path class="st0" d="M263.88,7.95c-0.4,0.33-0.59,0.76-0.59,1.3c0,0.54,0.24,0.97,0.73,1.28c0.48,0.32,1.6,0.69,3.36,1.12
			c1.75,0.43,3.11,1.08,4.08,1.94c0.97,0.86,1.45,2.12,1.45,3.78c0,1.66-0.62,3-1.86,4.03c-1.24,1.03-2.88,1.55-4.9,1.55
			c-2.93,0-5.56-1.08-7.91-3.25l2.46-3.01c1.99,1.74,3.83,2.62,5.53,2.62c0.76,0,1.35-0.16,1.78-0.49c0.43-0.33,0.65-0.77,0.65-1.32
			s-0.23-1-0.69-1.32c-0.46-0.33-1.37-0.66-2.72-0.99c-2.15-0.51-3.72-1.18-4.72-2c-1-0.82-1.49-2.11-1.49-3.86
			c0-1.75,0.63-3.11,1.89-4.06c1.26-0.95,2.83-1.43,4.72-1.43c1.23,0,2.47,0.21,3.7,0.63c1.23,0.42,2.31,1.02,3.23,1.8l-2.09,3.01
			c-1.6-1.22-3.26-1.82-4.97-1.82C264.82,7.46,264.28,7.62,263.88,7.95z"/>
	</g>
	<g>
		<path class="st1" d="M79.95,41.54h-6.08l-1.26,2.86h-1.68l5.18-11.44h1.62l5.2,11.44h-1.72L79.95,41.54z M79.38,40.24l-2.47-5.61
			l-2.47,5.61H79.38z"/>
		<path class="st1" d="M98.71,32.96V44.4h-1.34l-6.86-8.53v8.53h-1.63V32.96h1.34l6.86,8.53v-8.53H98.71z"/>
		<path class="st1" d="M113.69,41.54h-6.08l-1.26,2.86h-1.68l5.18-11.44h1.62l5.2,11.44h-1.72L113.69,41.54z M113.12,40.24
			l-2.47-5.61l-2.47,5.61H113.12z"/>
		<path class="st1" d="M122.62,32.96h1.63v10.02h6.19v1.42h-7.83V32.96z"/>
		<path class="st1" d="M139.76,40.45v3.95h-1.62v-3.99l-4.54-7.45h1.75l3.66,6.03l3.68-6.03h1.62L139.76,40.45z"/>
		<path class="st1" d="M152.35,34.39h-3.92v-1.42h9.46v1.42h-3.92V44.4h-1.62V34.39z"/>
		<path class="st1" d="M163.92,32.96h1.63V44.4h-1.63V32.96z"/>
		<path class="st1" d="M172.31,38.68c0-3.38,2.58-5.85,6.06-5.85c1.76,0,3.3,0.6,4.35,1.78l-1.06,1.03
			c-0.88-0.93-1.96-1.36-3.22-1.36c-2.58,0-4.49,1.86-4.49,4.4s1.91,4.4,4.49,4.4c1.26,0,2.34-0.44,3.22-1.37l1.06,1.03
			c-1.05,1.18-2.58,1.8-4.36,1.8C174.89,44.53,172.31,42.07,172.31,38.68z"/>
		<path class="st1" d="M188.22,43.1l0.6-1.27c0.85,0.77,2.3,1.32,3.78,1.32c1.98,0,2.83-0.77,2.83-1.76c0-2.79-6.93-1.03-6.93-5.28
			c0-1.77,1.37-3.27,4.38-3.27c1.34,0,2.73,0.36,3.68,1.01l-0.54,1.31c-1-0.64-2.12-0.93-3.14-0.93c-1.94,0-2.78,0.82-2.78,1.81
			c0,2.79,6.93,1.05,6.93,5.25c0,1.75-1.41,3.25-4.43,3.25C190.85,44.53,189.13,43.95,188.22,43.1z"/>
	</g>
	<g>
		<path class="st2" d="M24.96,9.74C16.55,9.74,9.7,16.58,9.7,25s6.85,15.26,15.26,15.26c8.42,0,15.26-6.85,15.26-15.26
			S33.38,9.74,24.96,9.74z M24.96,36.21c-6.18,0-11.21-5.03-11.21-11.21s5.03-11.21,11.21-11.21c6.18,0,11.21,5.03,11.21,11.21
			S31.15,36.21,24.96,36.21z"/>
		<path class="st2" d="M4.13,25c0-11.52,9.37-20.89,20.89-20.89c2.52,0,4.92,0.47,7.16,1.29l-1.92-4.74
			c-1.69-0.37-3.43-0.59-5.23-0.59C11.27,0.08,0.09,11.26,0.09,25c0,13.74,11.18,24.92,24.92,24.92c1.78,0,3.51-0.22,5.19-0.58
			l1.96-4.74c-2.23,0.82-4.63,1.29-7.14,1.29C13.5,45.89,4.13,36.52,4.13,25z"/>
		<path class="st2" d="M45.55,21.32l3.08-4.18c-1.06-3.16-2.72-6.04-4.87-8.5l-5.12,0.57C42.19,12.27,44.69,16.51,45.55,21.32z"/>
		<path class="st2" d="M38.64,40.8C38.64,40.8,38.64,40.8,38.64,40.8l5.14,0.56c2.14-2.46,3.8-5.33,4.86-8.49l-3.07-4.23
			C44.71,33.46,42.2,37.72,38.64,40.8z"/>
	</g>
</g>
</svg>
