<svg xmlns="http://www.w3.org/2000/svg" viewBox="0 0 682.98 681.61"><defs><style>.cls-1{fill:#53c0ab;}.cls-2{fill:#435570;}</style></defs><g id="Layer_2" data-name="Layer 2"><g id="Layer_1-2" data-name="Layer 1"><path class="cls-1" d="M504.19,306.82H509V220.21a2.37,2.37,0,0,0-1-1.91l-17-12.78a13.1,13.1,0,0,1-2.63,4l15.85,11.88Z"/><rect class="cls-1" x="504.19" y="343" width="4.77" height="147.7"/><path class="cls-1" d="M322.59,253.26h10.2c.32,0,.61,0,.92,0V221.51a6,6,0,0,0-2.95-5.14L223.67,153.54V155a12.93,12.93,0,0,1-4.49,9.79l102.59,60.18V253.3C322,253.28,322.32,253.26,322.59,253.26Z"/><path class="cls-1" d="M210.69,490.65c.28,0,.57,0,.86,0V167.9c-.29,0-.58,0-.86,0H200.48c-.31,0-.58,0-.87,0V490.69c.29,0,.56,0,.87,0Z"/><path class="cls-1" d="M171.75,172.24a2.35,2.35,0,0,0-.95,1.9V306.82h4.77V175.34L191,163.79a13.26,13.26,0,0,1-2.56-4Z"/><rect class="cls-1" x="170.8" y="343" width="4.77" height="147.65"/><path class="cls-1" d="M456.52,204.8l-133,129.68a6,6,0,0,0-1.8,4.28V490.7c.31,0,.6-.05.91-.05h10.22c.27,0,.54,0,.8,0V341.27L465.2,213A13,13,0,0,1,456.52,204.8Z"/><path class="cls-1" d="M468.77,213.52c-.18,0-.37,0-.56,0v277.2c.28,0,.57,0,.86,0h10.21c.29,0,.58,0,.87,0V213.46c-.38,0-.77.06-1.16.06Z"/><rect class="cls-1" x="356.79" y="402.69" width="4.77" height="87.96"/><path class="cls-1" d="M599,176.93a288.28,288.28,0,0,0-60.6-91.09A283.5,283.5,0,0,0,448.48,24a275.38,275.38,0,0,0-92.13-22.2,11,11,0,0,1,.14,1.63v10.2c0,.12,0,.23,0,.34a263.58,263.58,0,0,1,87.21,21.14,271.57,271.57,0,0,1,86.09,59.21,276.14,276.14,0,0,1,58.07,87.28,273,273,0,0,1,21.29,106,267.93,267.93,0,0,1-29.21,122.47,273.37,273.37,0,0,1-65.26,83.05,11,11,0,0,1,7.93,9.15,285.54,285.54,0,0,0,68.13-86.71,279.86,279.86,0,0,0,30.52-128A284.94,284.94,0,0,0,599,176.93Z"/><path class="cls-1" d="M561.85,246.6C534.39,134.5,433.43,54.52,316.64,54.52A252.6,252.6,0,0,0,92.2,422.83a254.78,254.78,0,0,0,64.91,79.92,11,11,0,0,1,7.48-9.54A242.51,242.51,0,0,1,103,417.27,240.43,240.43,0,0,1,316.64,66.64c110.34,0,205.83,75,232.82,180.41a11.23,11.23,0,0,1,3.1-.45Z"/><path class="cls-2" d="M101.25,589.62v92H85.71V620.9l-35.3,50.29L15.67,621.27v60.34H0v-92H10.76l39.79,56.79,40.06-56.79Z"/><path class="cls-2" d="M208.21,667.14h-45.1l-5.86,14.47H140.09l40.6-92h9.94l40.75,92h-17.3Zm-4.89-12.39-17.59-43.53-17.57,43.53Z"/><path class="cls-2" d="M343.8,616.12c0,14.84-12.94,26.13-29.43,26.13H285.21v39.36H269.54v-92h44.83C330.86,589.62,343.8,601.53,343.8,616.12Zm-15.4.12c0-8.21-7.07-13.61-16.07-13.61H285.21v27.11h27.12C321.33,629.74,328.4,624.7,328.4,616.24Z"/><path class="cls-2" d="M458.55,616.12c0,14.84-12.95,26.13-29.44,26.13H400v39.36H384.28v-92h44.83C445.6,589.62,458.55,601.53,458.55,616.12Zm-15.4.12c0-8.21-7.09-13.61-16.08-13.61H400v27.11h27.12C436.06,629.74,443.15,624.7,443.15,616.24Z"/><path class="cls-2" d="M515.5,602.63v26.49h37.62v13H515.5v26.5h43.35v13h-59v-92h59v13Z"/><path class="cls-2" d="M601.23,589.62h30.25c30.25,0,51.5,20.62,51.5,46s-21.25,46-51.5,46H601.23Zm29.84,78.75c21.11,0,35.83-14,35.83-32.75s-14.72-32.74-35.83-32.74H616.89v65.49Z"/><rect class="cls-2" x="350.4" y="376.06" width="17.09" height="17.09" rx="3.44"/><rect class="cls-2" x="465.34" y="192.19" width="17.09" height="17.09" rx="3.44"/><path class="cls-2" d="M322.59,279.9h10.2a3.45,3.45,0,0,0,3.44-3.44V266.25a3.44,3.44,0,0,0-3.44-3.44h-10.2a3.45,3.45,0,0,0-3.45,3.44v10.21A3.45,3.45,0,0,0,322.59,279.9Z"/><path class="cls-2" d="M210.69,146.61H200.48a3.44,3.44,0,0,0-3.44,3.44v10.21a3.45,3.45,0,0,0,3.44,3.44h10.21a3.44,3.44,0,0,0,3.43-3.44V150.05A3.43,3.43,0,0,0,210.69,146.61Z"/><path class="cls-2" d="M178.29,316.37H168.08a3.43,3.43,0,0,0-3.44,3.43V330a3.44,3.44,0,0,0,3.44,3.44h10.21a3.44,3.44,0,0,0,3.44-3.44V319.8A3.43,3.43,0,0,0,178.29,316.37Z"/><path class="cls-2" d="M210.69,500.21H200.48a3.44,3.44,0,0,0-3.44,3.44v10.21a3.44,3.44,0,0,0,3.44,3.43h10.21a3.43,3.43,0,0,0,3.43-3.43V503.65A3.43,3.43,0,0,0,210.69,500.21Z"/><rect class="cls-2" x="319.19" y="500.21" width="17.09" height="17.08" rx="3.44"/><path class="cls-2" d="M364.29,500.21H354.08a3.44,3.44,0,0,0-3.44,3.44v10.21a3.44,3.44,0,0,0,3.44,3.43h10.21a3.44,3.44,0,0,0,3.44-3.43V503.65A3.45,3.45,0,0,0,364.29,500.21Z"/><path class="cls-2" d="M479.28,500.21H469.07a3.44,3.44,0,0,0-3.44,3.44v10.21a3.44,3.44,0,0,0,3.44,3.43h10.21a3.44,3.44,0,0,0,3.44-3.43V503.65A3.44,3.44,0,0,0,479.28,500.21Z"/><path class="cls-2" d="M348.23,1.39A3.49,3.49,0,0,0,345.47,0H335.26a3.45,3.45,0,0,0-3.44,3.44v10.2a3.45,3.45,0,0,0,3.44,3.45h10.21a3.45,3.45,0,0,0,3.45-3.45V3.44A3.46,3.46,0,0,0,348.23,1.39Z"/><path class="cls-2" d="M164.64,503.65v10.21a3.44,3.44,0,0,0,3.44,3.43h10.21a3.44,3.44,0,0,0,3.44-3.43V503.65a3.44,3.44,0,0,0-3.44-3.44H168.08A3.44,3.44,0,0,0,164.64,503.65Z"/><path class="cls-2" d="M511.68,500.25H501.46a3.43,3.43,0,0,0-3.43,3.44V513.9a3.43,3.43,0,0,0,3.43,3.44h10.22a3.43,3.43,0,0,0,3.43-3.44V503.69A3.43,3.43,0,0,0,511.68,500.25Z"/><path class="cls-2" d="M515.11,330V319.8a3.42,3.42,0,0,0-3.43-3.43H501.46A3.42,3.42,0,0,0,498,319.8V330a3.43,3.43,0,0,0,3.43,3.44h10.22A3.43,3.43,0,0,0,515.11,330Z"/><path class="cls-2" d="M562.77,271.26a3.43,3.43,0,0,0,3.44-3.44V257.61a3.43,3.43,0,0,0-2.58-3.32,4.13,4.13,0,0,0-.86-.11H552.56a3.33,3.33,0,0,0-1.31.26,3.44,3.44,0,0,0-2.13,3.17v10.21a3.43,3.43,0,0,0,3.44,3.44Z"/></g></g></svg>