<!--Attribution: Modified version of undraw.co's "Page not found" SVG-->
<svg width="1074.392" height="584.231" xmlns="http://www.w3.org/2000/svg">
    <title>page not found</title>

    <g>
        <title>background</title>
        <rect fill="none" id="canvas_background" height="402" width="582" y="-1" x="-1"/>
    </g>
    <g>
        <title>Layer 1</title>
        <ellipse id="svg_1" fill="#f2f2f2" ry="34.9216" rx="527.5" cy="549.3094" cx="540.64346"/>
        <path id="svg_2" fill="#2f2e41" d="m520.425689,167.009734c-85.94407,0 -147.651,55.13938 -147.651,183.79791c0,145.813 61.70691,184.41057 147.651,184.41057s151.327,-42.27352 151.327,-184.41057c-0.00005,-151.9396 -65.38293,-183.79791 -151.327,-183.79791zm0.56495,319.80837c-59.52686,0 -90.62592,-34.92288 -90.62592,-135.9163c0,-89.11185 32.37209,-136.10461 91.899,-136.10461s91.899,30.86774 91.899,136.10461c-0.00009,98.44736 -33.64522,135.9163 -93.17208,135.9163z"/>
        <path id="svg_3" fill="#4285f4" d="m321.311309,433.516704l-35.53431,0l0,-104.63938a20.95585,20.95585 0 0 0 -20.95583,-20.95583l-8.32638,0a20.95585,20.95585 0 0 0 -20.95586,20.95585l0,104.63936l-100.23008,0a11.96327,11.96327 0 0 1 -10.57763,-17.552l106.0824,-200.78034a20.95585,20.95585 0 0 0 -9.58038,-28.73887l-6.26231,-2.9572a20.95585,20.95585 0 0 0 -27.4293,9.07005l-129.38147,242.03255a28.41578,28.41578 0 0 0 -3.35584,13.39612l0,0a28.41583,28.41583 0 0 0 28.41584,28.41583l152.31877,0l0,66.16727a25.119,25.119 0 0 0 25.119,25.119l0.00005,0a25.119,25.119 0 0 0 25.119,-25.119l0,-66.16723l35.53428,0a21.44307,21.44307 0 0 0 21.44307,-21.44307l0,0a21.44307,21.44307 0 0 0 -21.44302,-21.44311z"/>
        <path id="svg_4" fill="#4285f4" d="m979.307829,433.516704l-35.53428,0l0,-104.63938a20.95585,20.95585 0 0 0 -20.95586,-20.95583l-8.32638,0a20.95585,20.95585 0 0 0 -20.95586,20.95585l0,104.63936l-100.23008,0a11.96326,11.96326 0 0 1 -10.57763,-17.552l106.08239,-200.7803a20.95586,20.95586 0 0 0 -9.58037,-28.73891l-6.26231,-2.9572a20.95586,20.95586 0 0 0 -27.42931,9.07005l-129.38146,242.03255a28.41578,28.41578 0 0 0 -3.35584,13.39612l0,0a28.41583,28.41583 0 0 0 28.41583,28.41583l152.31878,0l0,66.16727a25.119,25.119 0 0 0 25.119,25.119l0,0a25.119,25.119 0 0 0 25.119,-25.119l0,-66.16723l35.53428,0a21.44307,21.44307 0 0 0 21.44307,-21.44307l0,0a21.44307,21.44307 0 0 0 -21.44297,-21.44311z"/>
        <path id="svg_5" stroke-miterlimit="10" stroke="#3f3d56" fill="none" d="m331.113869,421.263494l-35.53429,0l0,-104.63936a20.95585,20.95585 0 0 0 -20.95585,-20.95586l-8.32638,0a20.95586,20.95586 0 0 0 -20.95586,20.95586l0,104.63936l-100.23008,0a11.96327,11.96327 0 0 1 -10.57763,-17.552l106.08239,-200.78028a20.95586,20.95586 0 0 0 -9.58037,-28.73893l-6.26231,-2.9572a20.95586,20.95586 0 0 0 -27.42931,9.07l-129.38146,242.03261a28.41582,28.41582 0 0 0 -3.35584,13.39613l0,0a28.41583,28.41583 0 0 0 28.41583,28.41583l152.31878,0l0,66.16727a25.119,25.119 0 0 0 25.119,25.119l0.00005,0a25.119,25.119 0 0 0 25.119,-25.119l0,-66.16723l35.53429,0a21.44307,21.44307 0 0 0 21.44307,-21.44307l0,0a21.44307,21.44307 0 0 0 -21.44303,-21.44313z"/>
        <path id="svg_6" stroke-miterlimit="10" stroke="#3f3d56" fill="none" d="m997.687619,421.263494l-35.53428,0l0,-104.63936a20.95586,20.95586 0 0 0 -20.95586,-20.95586l-8.32638,0a20.95586,20.95586 0 0 0 -20.95586,20.95586l0,104.63936l-100.23008,0a11.96327,11.96327 0 0 1 -10.57763,-17.552l106.08239,-200.78028a20.95586,20.95586 0 0 0 -9.58037,-28.73893l-6.26231,-2.9572a20.95586,20.95586 0 0 0 -27.42931,9.07l-129.38146,242.03261a28.41582,28.41582 0 0 0 -3.35584,13.39613l0,0a28.41583,28.41583 0 0 0 28.41583,28.41583l152.31878,0l0,66.16727a25.119,25.119 0 0 0 25.119,25.119l0,0a25.119,25.119 0 0 0 25.119,-25.119l0,-66.16723l35.53428,0a21.44307,21.44307 0 0 0 21.44307,-21.44307l0,0a21.44307,21.44307 0 0 0 -21.44297,-21.44313z"/>
        <path id="svg_7" stroke-miterlimit="10" stroke="#3f3d56" fill="none" d="m540.030799,155.981864c-85.94407,0 -147.651,55.13937 -147.651,183.79791c0,145.813 61.70691,184.41057 147.651,184.41057s151.327,-42.27352 151.327,-184.41057c-0.00005,-151.93961 -65.38293,-183.79791 -151.327,-183.79791zm0.565,319.80836c-59.52686,0 -90.62592,-34.92287 -90.62592,-135.91629c0,-89.11185 32.37209,-136.10461 91.899,-136.10461s91.899,30.86774 91.899,136.10461c-0.00014,98.44735 -33.64527,135.91629 -93.17213,135.91629l0.00005,0z"/>
        <path id="svg_51" fill="#fff" d="m540.945999,369.315494a4.93658,4.93658 0 0 1 -1.32,3.392a4.33873,4.33873 0 0 1 -3.18,1.408l-10,0a4.66433,4.66433 0 0 1 -4.5,-4.8a4.90458,4.90458 0 0 1 0.82,-2.74134a47.02,47.02 0 0 1 6.68,-0.45866a47.66454,47.66454 0 0 1 11.13,1.28a5.06656,5.06656 0 0 1 0.37,1.92z"/>
        <circle id="svg_52" fill="#fff" r="5" cy="308.1155" cx="484.946"/>
        <circle id="svg_53" fill="#fff" r="5" cy="308.1155" cx="577.946"/>
    </g>
</svg>