<svg height="207.724" width="300" xmlns="http://www.w3.org/2000/svg"><g transform="matrix(4.5286 0 0 4.5286 -1274.444 -2349.8)"><path d="m281.422 530.931s19.627-2.54 20.181-2.63a21.96 21.96 0 0 0 2.307-.495 14.622 14.622 0 0 0 4.343-1.973c1.241-.832 2.395-2.042 3.539-3.37.726-.844 1.49-1.945 2.202-3.008v-.514a29.782 29.782 0 0 1 -2.534 3.282c-1.135 1.263-2.325 2.296-3.538 3.07a13.917 13.917 0 0 1 -4.19 1.79c-.685.173-1.418.313-2.243.428-.542.077-1.102.135-1.644.192l-18.423 1.955z" fill="#bdbcbc"/><path d="m307.743 527.64c-1.229.707-2.648 1.224-4.218 1.537-.67.136-1.401.246-2.234.336-.49.054-.982.096-1.476.139-.266.022-.532.046-.799.07a2493.86 2493.86 0 0 0 -17.595 1.656v1.274a2424.63 2424.63 0 0 1 18.482-2.171c.492-.054.986-.11 1.48-.174a25.528 25.528 0 0 0 2.288-.4c1.632-.365 3.104-.94 4.378-1.711 1.265-.76 2.382-1.823 3.585-3.123.749-.809 1.581-1.951 2.361-3.024v-.467c-.919 1.245-1.79 2.291-2.651 3.184-1.174 1.216-2.385 2.182-3.601 2.875" fill="#bdbcbc"/><path d="m311.178 527.329c-1.198 1.098-2.448 1.962-3.717 2.567-1.24.599-2.628 1.019-4.245 1.284-.666.111-1.39.201-2.215.276l-19.58 1.608v1.27l17.405-1.847 2.252-.236a31.929 31.929 0 0 0 2.26-.336c1.675-.316 3.11-.788 4.39-1.443 1.307-.66 2.613-1.76 3.828-2.926.815-.781 1.6-1.79 2.44-2.847v-.424c-.97 1.205-1.895 2.207-2.818 3.054" fill="#bdbcbc"/><path d="m306.443 533.926c-1.14.637-1.992 1.005-3.62 1.175-.984.106-1.995.156-2.974.205-.472.023-.946.047-1.42.077-2.957.169-5.862.356-8.826.549l-8.181.551v1.27l8.264-.757c2.67-.24 5.772-.517 8.8-.764l2.203-.17c.86-.066 1.565-.136 2.218-.221 1.675-.217 3.106-.555 4.374-1.034 1.365-.51 2.652-1.303 3.94-2.235 1.163-.84 2.772-2.496 2.773-2.518v-.448c-1.05 1.025-1.656 1.6-2.807 2.36-1.376.906-3.721 1.388-4.744 1.96" fill="#bdbcbc"/><path d="m306.86 536.34c-1.236.362-2.626.607-4.25.749-.66.057-1.37.1-2.172.133l-2.19.097c-5.441.252-10.857.535-16.826.85v1.267c5.702-.441 11.29-.87 16.876-1.267l2.183-.15a48.464 48.464 0 0 0 2.2-.19c1.665-.185 3.09-.473 4.355-.878a17.231 17.231 0 0 0 4.06-1.912 24.176 24.176 0 0 0 2.898-2.197v-.022c-1.09.931-2.13 1.139-3.167 1.764-1.27.77-2.605 1.36-3.968 1.756" fill="#bdbcbc"/><path d="m306.657 538.445c-1.243.29-2.592.477-4.243.588-.637.043-1.322.074-2.155.1l-2.17.078c-5.464.206-11.005.444-16.668.69v1.266c5.626-.384 11.145-.757 16.711-1.105l2.164-.13c.849-.049 1.54-.097 2.176-.156 1.682-.155 3.058-.381 4.33-.71a18.799 18.799 0 0 0 4.124-1.603 23.865 23.865 0 0 0 3.069-1.958v-.542a23.912 23.912 0 0 1 -3.301 2.025 18.208 18.208 0 0 1 -4.037 1.457" fill="#bdbcbc"/><path d="m306.472 540.508c-1.249.23-2.592.375-4.231.46-.616.032-1.276.054-2.139.074l-18.68.505v1.266l16.564-.865 2.146-.108c.838-.04 1.523-.08 2.156-.13 1.662-.127 3.028-.31 4.3-.575 1.445-.3 2.848-.738 4.168-1.3a25.726 25.726 0 0 0 3.239-1.67v-.51a25.353 25.353 0 0 1 -3.433 1.687c-1.301.518-2.677.91-4.09 1.166" fill="#bdbcbc"/><path d="m306.325 542.58c-2.292.307-4.65.342-6.933.376-.523.007-1.047.015-1.569.026l-16.401.295v1.264l16.43-.708c.52-.023 1.042-.045 1.565-.065 2.297-.092 4.673-.187 6.997-.556a25.887 25.887 0 0 0 4.206-1.019 28.097 28.097 0 0 0 3.374-1.4v-.485a27.824 27.824 0 0 1 -3.531 1.38 25.295 25.295 0 0 1 -4.138.893m-.13 2.085c-2.147.178-4.345.178-6.471.178-.661 0-1.323 0-1.984.005-5.434.024-10.824.069-16.319.116v1.264c5.234-.178 10.785-.363 16.338-.528.659-.022 1.317-.038 1.977-.056 2.138-.054 4.348-.109 6.518-.344a31.414 31.414 0 0 0 4.216-.727 30.163 30.163 0 0 0 3.525-1.115v-.465c-1.227.44-2.45.8-3.641 1.062a30.878 30.878 0 0 1 -4.159.61m-.083 2.056a75.61 75.61 0 0 1 -2.962.053c-.415 0-.832-.002-1.245-.006l-4.228-.052c-2.884-.02-5.757-.026-8.454-.028l-7.8.007v1.262l7.82-.203c2.685-.067 5.567-.135 8.443-.187l4.224-.056a85.72 85.72 0 0 0 4.236-.154 45.224 45.224 0 0 0 4.222-.461 40.385 40.385 0 0 0 3.627-.758v-.447a40.695 40.695 0 0 1 -3.702.68c-1.316.176-2.683.29-4.18.35m-4.257 1.987-4.213-.045c-5.375-.076-10.744-.174-16.221-.276v1.263c5.227-.033 10.765-.073 16.225-.135l4.215-.062c1.42-.025 2.811-.051 4.217-.098 2.897-.092 5.492-.296 7.915-.617v-.44c-2.433.262-5.03.4-7.93.419a241.06 241.06 0 0 1 -4.208-.01m12.139 2.236-32.573-.827v1.264h32.573zm-2.933-21.228c-1.238.994-2.193 1.7-3.708 2.301-1.319.525-2.735.739-4.354.96-1.04.146-2.13.361-3.17.431-.427.029-.855.057-1.28.09l-17.128 1.25v1.267l17.196-1.668 2.23-.209a34.022 34.022 0 0 0 2.244-.28c1.666-.267 3.102-.675 4.39-1.248 1.335-.59 2.686-1.554 3.942-2.61.854-.718 1.676-1.62 2.57-2.607v-.453c-1.081 1.117-1.979 2.01-2.932 2.776" fill="#bdbcbc"/><path d="m294.96 563.495h28.533v-12.689h-28.533v12.69z" fill="#fff"/><path d="m323.498 532.29h-28.538v19.09h28.538z" fill="#254aa5"/><path d="m309.539 535.005h.992l-.8.624.311.988-.797-.608-.798.608.315-.988-.807-.624h.99l.3-.965zm.035 12.73h.995l-.802.602.312.95-.798-.585-.796.585.314-.95-.809-.601h.991l.3-.928.293.928zm3.149-.842h.995l-.801.6.31.951-.797-.587-.796.587.314-.951-.809-.6h.991l.3-.929zm0-11.039h.995l-.801.6.31.951-.797-.586-.796.586.314-.95-.809-.6h.991l.3-.928zm2.338 2.338h.992l-.8.599.312.952-.798-.586-.795.586.314-.952-.809-.599h.99l.3-.929zm0 6.395h.992l-.8.6.312.953-.798-.587-.795.587.314-.952-.809-.601h.99l.3-.93zm.876-3.246h.995l-.801.6.311.952-.798-.587-.796.587.314-.952-.809-.6h.99l.301-.928zm-9.609-5.48h.993l-.8.602.31.951-.797-.587-.797.587.315-.95-.808-.602h.99l.3-.928.294.928zm-2.273 2.339h.995l-.801.6.31.952-.797-.587-.796.587.313-.952-.808-.6h.991l.3-.928zm-.844 3.148h.994l-.8.6.31.953-.796-.586-.798.586.314-.953-.806-.6h.99l.3-.927zm.844 3.247h.995l-.801.6.31.953-.797-.587-.796.587.313-.952-.808-.601h.991l.3-.927zm2.306 2.306h.993l-.8.6.308.95-.795-.585-.797.586.315-.951-.808-.6h.99l.3-.93z" fill="#fff200"/><path d="m294.96 564.749h28.54v-1.629h-28.54z" fill="#254aa5"/><g fill="#bdbcbc"><path d="m327.56 518.88s5.95 9.266 7.038 10.97c1.087 1.702 2.331 3.05 6.734 3.965 4.402.915 6.318 1.347 6.318 1.347v.33s-2.797-.585-6.397-1.372c-3.599-.788-5.07-1.054-6.711-3.292-1.367-1.862-6.983-9.778-6.983-9.778v-2.17z"/><path d="m327.56 521.514s6.148 8.81 6.964 9.89 1.915 2.82 6.775 3.847c1.255.265 6.368 1.27 6.368 1.27v.28s-3.885-.75-6.368-1.272c-2.484-.522-5.092-.998-6.757-3.098-1.513-1.908-6.994-8.943-6.994-8.943l.011-1.974z"/><path d="m327.56 524.16s5.793 7.487 6.964 8.984c1.17 1.497 2.784 2.733 6.775 3.5 2.301.442 6.35 1.183 6.35 1.183v.279s-3.547-.662-6.35-1.167c-2.802-.505-5.116-.993-6.775-2.855-1.455-1.633-6.976-8.055-6.976-8.055l.011-1.868z"/><path d="m327.548 526.76s5.866 6.792 6.993 8.003c1.757 1.886 2.608 2.536 6.758 3.325 1.66.316 6.35 1.133 6.35 1.133v.295s-3.884-.697-6.35-1.132c-2.465-.435-4.551-.597-6.775-2.733-1.694-1.627-6.965-7.138-6.965-7.138l-.011-1.752z"/><path d="m327.56 529.465s5.415 5.564 6.982 7.161c1.661 1.694 3.79 2.321 6.74 2.838 2.816.492 6.367 1.062 6.367 1.062v.313s-3.335-.535-6.367-1.044c-2.974-.5-5.055-.778-6.758-2.316a2079.64 2079.64 0 0 1 -6.965-6.378v-1.636z"/><path d="m327.56 531.972s5.15 4.689 6.982 6.291c1.685 1.474 3.051 1.933 6.757 2.576a328.96 328.96 0 0 0 6.35 1.044v.331s-3.352-.54-6.367-1.01-4.937-.655-6.74-2.088c-2.082-1.655-6.983-5.612-6.983-5.612v-1.532z"/><path d="m327.547 534.653s5.877 4.567 6.977 5.367c1.1.802 2.553 1.735 6.775 2.334 4.186.593 6.332.888 6.332.888v.348s-3.795-.54-6.332-.853c-2.537-.314-4.482-.447-6.758-1.933-2.216-1.446-6.982-4.735-6.982-4.735z"/><path d="m327.547 537.218s5.894 3.847 7.012 4.457 2.431 1.602 6.74 2.142c4.31.538 6.332.782 6.332.782v.331s-3.565-.382-6.35-.678c-2.785-.297-4.682-.697-6.757-1.812-2.075-1.113-6.965-3.91-6.965-3.91z"/><path d="m327.56 539.783s5.215 2.781 6.982 3.65c1.968.969 3.671 1.434 6.757 1.792 3.03.355 6.35.698 6.35.698v.314s-3.07-.323-6.35-.628c-3.251-.301-4.41-.441-6.757-1.462-2.1-.913-6.994-3.145-6.994-3.145l.011-1.22z"/><path d="m327.56 542.394s4.103 1.723 7 2.85c2.85 1.108 5.025 1.202 6.757 1.393.762.084 6.315.644 6.315.644v.312s-3.318-.26-6.333-.521-4.316-.371-6.757-1.166c-2.472-.804-6.994-2.35-6.994-2.35l.011-1.162zm0 2.647s4.162 1.265 7 1.996c2.837.731 5.444 1.027 6.757 1.114 1.312.087 6.315.487 6.315.487v.296s-2.838-.19-6.333-.435c-2.826-.197-5.096-.406-6.757-.766-1.842-.399-6.994-1.601-6.994-1.601l.011-1.091zm-.012 2.611s3.415.576 7.011 1.16c2.696.439 6.35.715 6.74.731.39.018 6.35.42 6.35.42v.312s-3.814-.193-6.35-.33c-2.641-.144-5.266-.3-6.758-.453-3.34-.342-6.993-.795-6.993-.795zm.011 2.704s5.369.197 7 .232 13.09.488 13.09.488v.314l-20.09-.013z"/></g><path d="m296.629 553.262c0-.059.027-.09.09-.09h1.656c.054 0 .086.031.086.085v.28c0 .054-.022.081-.09.081h-1.229v.774h1.09c.058 0 .09.027.09.081v.279c0 .054-.023.081-.09.081h-1.09v.886h1.26c.054 0 .082.028.082.087v.273c0 .06-.023.082-.087.082h-1.678c-.063 0-.09-.028-.09-.082zm3.942 2.899h-.32c-.067 0-.085-.031-.085-.085v-.14l-.009-.005c-.176.122-.482.27-.756.27-.608 0-.666-.36-.666-.833v-1.323c0-.054.022-.09.085-.09h.328c.06 0 .082.032.082.09v1.265c0 .27.053.44.328.44.194 0 .49-.143.608-.202v-1.503c0-.054.017-.09.085-.09h.32c.062 0 .085.032.085.09v2.03c0 .058-.023.086-.085.086m.963-.086c0 .054-.023.085-.085.085h-.325c-.063 0-.085-.026-.085-.085v-2.03c0-.058.022-.09.085-.09h.32c.067 0 .09.037.09.09v.198l.009.009c.135-.125.455-.279.666-.319.059-.014.099 0 .109.076l.03.302c.005.063.01.09-.085.108a4.37 4.37 0 0 0 -.73.207v1.45zm1.894-1.733c-.382 0-.468.244-.468.712 0 .477.086.71.463.71.41 0 .492-.23.492-.71 0-.478-.077-.712-.487-.712m-.005 1.855c-.903 0-.962-.662-.962-1.175 0-.423.094-1.112.962-1.112.874 0 .995.581.995 1.112 0 .513-.062 1.175-.995 1.175m2.34-1.828c-.184 0-.468.13-.603.203v1.125c.202.059.365.076.519.076.323 0 .436-.166.436-.732 0-.573-.113-.672-.351-.672m-.036 1.833c-.15 0-.355-.028-.563-.1l-.005.005v.792c0 .05-.012.09-.085.09h-.32c-.071 0-.085-.03-.085-.09v-2.853c0-.059.023-.09.085-.09h.32c.064 0 .081.035.081.09v.135l.014.009c.161-.113.45-.27.711-.27.59 0 .743.445.743 1.125 0 .733-.185 1.157-.896 1.157m1.674-1.346h.89c0-.275-.072-.54-.444-.54-.334 0-.424.202-.446.54m-.005.337c.013.455.176.581.545.581.162 0 .413-.032.585-.05.08-.009.108-.009.122.077l.026.148c.014.068.005.104-.076.14a2.449 2.449 0 0 1 -.725.113c-.86 0-.986-.549-.986-1.135 0-.436.081-1.156.96-1.156.805 0 .949.522.962 1.007.005.163-.04.275-.22.275zm3.006-.036h-.549c-.225 0-.37.081-.37.379 0 .197.068.26.28.26.194 0 .468-.113.64-.212v-.427zm.028.747a1.413 1.413 0 0 1 -.829.293c-.478 0-.616-.261-.616-.639-.005-.527.278-.752.846-.752h.576v-.117c0-.27-.1-.365-.469-.365-.148 0-.432.023-.612.04-.09.014-.113.01-.125-.053l-.041-.167c-.01-.058.005-.095.104-.135.193-.067.548-.098.76-.098.78 0 .873.319.873.824v.868c0 .184.023.189.163.207.067.005.085.018.085.067v.19c0 .049-.031.08-.108.094a1.142 1.142 0 0 1 -.211.022c-.212 0-.342-.062-.387-.274l-.01-.005zm2.677.257h-.324c-.059 0-.086-.028-.086-.085l.005-1.265c0-.266-.063-.441-.324-.441-.18 0-.495.143-.617.202v1.504c0 .054-.023.085-.085.085h-.32c-.063 0-.085-.028-.085-.085v-2.031c0-.058.022-.09.085-.09h.32c.062 0 .085.032.085.09v.136c.005 0 .01.004.013.004.167-.116.482-.27.757-.27.607 0 .662.401.662.855v1.306c0 .054-.019.085-.086.085m-15.305 1.73c.22 0 .585.03.824.13.073.032.099.068.085.14l-.04.184c-.014.054-.036.077-.117.068a6.167 6.167 0 0 0 -.724-.059c-.613 0-.703.495-.703 1.08 0 .59.113 1.054.703 1.054.26 0 .481-.028.724-.059.086-.009.103.014.122.073l.035.17c.019.072-.004.113-.076.145-.22.093-.613.135-.833.135-1.003 0-1.215-.743-1.215-1.51 0-.768.19-1.552 1.215-1.552m1.93 1.202c-.382 0-.468.244-.468.712 0 .477.086.71.464.71.41 0 .491-.23.491-.71 0-.478-.076-.712-.486-.712m-.005 1.855c-.904 0-.963-.662-.963-1.175 0-.423.094-1.112.963-1.112.874 0 .995.581.995 1.112 0 .513-.063 1.175-.995 1.175m4.397-.036h-.323c-.064 0-.087-.028-.087-.085v-1.279c0-.334-.08-.427-.306-.427-.166 0-.436.13-.575.202 0 .045.004.126.004.229v1.275c0 .054-.017.085-.085.085h-.329c-.058 0-.076-.028-.076-.085v-1.301c0-.275-.072-.405-.297-.405-.158 0-.41.112-.582.202v1.504c0 .054-.022.085-.085.085h-.323c-.06 0-.082-.028-.082-.085v-2.031c0-.058.023-.09.082-.09h.318c.068 0 .09.036.09.09v.13l.005.006c.175-.123.423-.258.672-.266.26 0 .476.053.616.315.225-.167.504-.315.792-.315.594 0 .653.387.653.837v1.324c0 .054-.019.085-.081.085m3.527 0h-.323c-.064 0-.087-.028-.087-.085v-1.279c0-.334-.08-.427-.306-.427-.166 0-.436.13-.575.202 0 .045.004.126.004.229v1.275c0 .054-.017.085-.085.085h-.329c-.058 0-.076-.028-.076-.085v-1.301c0-.275-.072-.405-.297-.405-.158 0-.41.112-.582.202v1.504c0 .054-.022.085-.085.085h-.323c-.06 0-.082-.028-.082-.085v-2.031c0-.058.023-.09.082-.09h.318c.068 0 .09.036.09.09v.13l.005.006c.175-.123.423-.258.672-.266.26 0 .476.053.616.315.225-.167.504-.315.792-.315.594 0 .653.387.653.837v1.324c0 .054-.019.085-.081.085m.94-.086c0 .05-.018.085-.082.085h-.32c-.063 0-.09-.026-.09-.085v-2.035c0-.062.027-.085.09-.085h.32c.064 0 .081.037.081.085v2.035zm-.24-2.443c-.233 0-.265-.132-.265-.262 0-.143.05-.257.265-.257.222 0 .267.104.267.257 0 .14-.041.262-.267.262m1.355 2.565c-.225 0-.526-.031-.697-.099-.09-.036-.109-.077-.095-.148l.03-.15c.015-.072.046-.075.118-.067.198.032.487.054.64.054.288 0 .405-.076.405-.256 0-.208-.077-.253-.36-.293-.442-.063-.828-.157-.828-.648 0-.445.34-.68.846-.68.184 0 .495.027.684.1.076.03.108.067.095.135l-.037.16c-.013.065-.04.073-.12.065a6.232 6.232 0 0 0 -.613-.05c-.288 0-.355.08-.355.252 0 .175.107.198.382.243.428.063.814.148.814.685 0 .526-.445.697-.909.697m1.886 0c-.225 0-.527-.031-.698-.099-.09-.036-.109-.077-.095-.148l.031-.15c.014-.072.045-.075.118-.067.197.032.486.054.639.054.288 0 .406-.076.406-.256 0-.208-.078-.253-.361-.293-.442-.063-.828-.157-.828-.648 0-.445.341-.68.846-.68.184 0 .495.027.684.1.076.03.109.067.095.135l-.036.16c-.014.065-.04.073-.121.065a6.232 6.232 0 0 0 -.613-.05c-.287 0-.355.08-.355.252 0 .175.108.198.383.243.427.063.813.148.813.685 0 .526-.445.697-.908.697m1.7-.122c0 .05-.017.085-.08.085h-.32c-.063 0-.09-.026-.09-.085v-2.035c0-.062.027-.085.09-.085h.32c.063 0 .08.037.08.085zm-.238-2.443c-.234 0-.265-.132-.265-.262 0-.143.049-.257.265-.257.221 0 .266.104.266.257 0 .14-.04.262-.266.262m1.54.71c-.383 0-.468.244-.468.712 0 .477.085.71.462.71.41 0 .492-.23.492-.71 0-.478-.077-.712-.487-.712m-.005 1.855c-.903 0-.962-.662-.962-1.175 0-.423.094-1.112.962-1.112.874 0 .995.581.995 1.112 0 .513-.062 1.175-.995 1.175m3.075-.036h-.324c-.059 0-.086-.028-.086-.085l.005-1.265c0-.266-.063-.441-.324-.441-.18 0-.495.143-.618.202v1.504c0 .054-.022.085-.085.085h-.32c-.062 0-.085-.028-.085-.085v-2.031c0-.058.023-.09.085-.09h.32c.063 0 .085.032.085.09v.136c.005 0 .01.004.014.004.166-.116.483-.27.756-.27.608 0 .663.401.663.855v1.306c0 .054-.019.085-.086.085" fill="#5a5758"/></g></svg>