<svg enable-background="new 0 0 260.9 120.1" height="214.552937" viewBox="0 0 260.9 120.1" width="466.08544" xmlns="http://www.w3.org/2000/svg"><g fill="#706259"><path d="m69.9 49.2c1.1-.5 2.3-.5 3.4-.1l1-1.3c-2.4 0-3.2-1.2-2.7-2s1.5-.2 2.3.3l1-1.2c-1-.9-2.6-.8-3.6.2-.1.1-.2.2-.2.3-.6.7-.5 1.7.1 2.3-.7.2-1.3.5-1.8 1z"/><path d="m110.7 44v13.7c1.2 0 1.9-1 1.9-2.7v-11z"/><path d="m99.3 63.1v13.6c1.2 0 1.9-1 1.9-2.7v-11h-1.9z"/><path d="m80.8 54.6c.4 1 1.3 1.6 2.3 1.5h4.9v-1.5c.4 1 1.3 1.6 2.3 1.5h1.1c.6.1 1.2-.1 1.7-.5.5-.5.8-1.2 1-1.8-.2 1.6 2.8 2.2 4.5 2.3 1.6.2 1.7-.9 1.7-1.5.4 1 1.3 1.6 2.3 1.5h4.8v-12.1h-1.9v10.6h-3.1c-1.1.1-2-.7-2.1-1.8 0-.1 0-.3 0-.4 0-2.5-.5-4.7-2.8-4.7-3.6 0-4.1 4-5.3 6-.3.6-.9 1-1.5.9h-.6c-1.1.1-2-.7-2.1-1.7 0-.1 0-.3 0-.4v-8.5h-1.9v10.6h-3.2c-1.1.1-2-.7-2.1-1.8 0-.1 0-.3 0-.4v-8.4h-1.9v10.6h-9.7c-2.8 0-2.4-2.3-1-3.9l-.5-.5c-2.1 1.8-3.3 4.2-1.6 5.5.5.4 1.2.5 1.8.4h12.9zm17.5-3.4v3.2c-1.4-.1-2.8-.7-3.9-1.7.2-.7.4-1.2.6-1.9.4-1.3 1-2.5 2.1-2.2.9.2 1.2 1.3 1.2 2.6"/><path d="m22.8 44v13.7c1.2 0 1.9-1 1.9-2.7v-11z"/><path d="m137.9 73.6h-1.2c-2.9 0-2.5-2.8-.9-4 1.4-1.1 2.2.7 2.2 3zm14.7-3.5.9-1.4c2.7.3 2.2 2.4 1 3.8-.2-1-.9-1.9-1.9-2.4m15.1-7v10.5h-3.2c-1.1.1-2-.7-2.1-1.8 0-.1 0-.3 0-.4v-8.4h-1.9v10.5h-5.2c1.2-1.1 2.7-3.8 1.5-5.2s-3-1.2-4.3-1.3l-2 3c1.5.6 2.7 1.9 3.1 3.6h-6.5c-1.1.1-2-.7-2.1-1.8 0-.1 0-.3 0-.4v-8.4h-1.9v10.5h-3.1v-.8c0-3.2-2.1-5.8-4.9-3.7-2 1.5-3.2 4.3-1.5 5.6.5.4 1.2.5 1.8.4h2.3c-.4 2.5-1 4.9-4.5 6.5l.2.6c2.9-.9 5.7-2.1 6.4-7.1h5.3v-1.5c.4 1 1.3 1.6 2.3 1.5h4.8c.7.1 1.4-.1 1.9-.5.5.4 1.2.6 1.9.5h6.4v-1.8c0 .5.3 1.1.7 1.4.5.4 1.2.5 1.8.4h4.7v-11.9z"/><path d="m109 73.6h-1.2c-2.9 0-2.5-2.8-.9-4 1.4-1.1 2.2.7 2.2 3zm2.1-.8c0-3.2-2.1-5.8-4.9-3.7-2 1.5-3.2 4.2-1.5 5.6.5.4 1.2.5 1.8.4h2.3c-.4 2.5-1 4.9-4.5 6.5l.2.6c2.9-.9 5.7-2.2 6.4-7.1.1-.7.2-1.5.2-2.3"/><path d="m12.4 56.1v-1.5c.4 1 1.3 1.6 2.3 1.5h4.9v-12.1h-1.9v10.6h-3.2c-1.1.1-2-.7-2.1-1.8 0-.1 0-.3 0-.4v-8.4h-1.9v10.6h-3.3v-.8c0-3.2-2.1-5.8-4.9-3.7-2 1.5-3.2 4.3-1.5 5.5.6.4 1.2.6 1.8.5zm-7.3-1.5h-1.2c-2.9 0-2.5-2.8-.9-4 1.4-1.1 2.2.7 2.2 3z"/><path d="m147.7 54.4c-1.5-.1-2.8-.6-3.9-1.7.2-.7.4-1.2.6-1.9.4-1.3 1-2.5 2.1-2.2.8.2 1.2 1.3 1.2 2.6zm-14.3-3.4.9-1.4c2.7.2 2.2 2.4 1 3.8-.2-1-.9-1.9-1.9-2.4m-7.5 3.5h-1.2c-2.9 0-2.5-2.8-.9-4 1.4-1.1 2.2.7 2.2 3zm21-6.8c-3.6 0-4.1 4-5.3 6-.3.6-.9 1-1.5.9h-3.9c1.2-1.1 2.7-3.8 1.5-5.2s-3-1.2-4.3-1.3l-2 3c1.5.6 2.7 1.9 3.1 3.5h-6.5v-.8c0-3.2-2.1-5.8-4.9-3.7-2 1.5-3.2 4.3-1.5 5.6.5.3 1.2.5 1.8.4h9.6c.7.1 1.4-.1 1.9-.5.5.4 1.2.6 1.9.5h3.9c.6.1 1.2-.1 1.7-.5.5-.5.8-1.2 1-1.8-.2 1.6 2.8 2.2 4.5 2.3 1.6.2 1.6-.9 1.6-1.5v-2.2c.1-2.4-.4-4.7-2.6-4.7"/><path d="m54.2 54.6c-2.4 0-3.3-1.7-3.3-3.5-.1-2 1.9-2.7 5-1.8l.2-.6c-1.1-.5-2.2-.8-3.4-.9-2.7 0-4 1.3-4 3.5-.1 1.3.5 2.5 1.5 3.2h-4.2c-1.1.1-2-.8-2-1.8 0-.1 0-.2 0-.3v-1.9h-2v4.1h-4.3c-1.1.1-2-.7-2.1-1.8 0-.1 0-.3 0-.4v-4.5h-2v6.7h-3.5c-1 0-.9-.6-.5-1.1l-.5-.3c-1.2 1.3-1 3 1.2 3h5.2v-1.6c.4 1 1.3 1.6 2.3 1.5h6v-1.5c.4 1 1.3 1.6 2.3 1.5h10.2v-1.5z"/><path d="m166 51.4c-1.1-1.9-2.4-3.3-4.9-3.3l-.1.7c3.9.7 2 3.1 5.3 5.8h-10.6v-10.6h-1.9v9.4c0 1.7.8 2.7 1.9 2.7h14.3v-1.5c-1.8-.4-3.2-1.5-4-3.2"/><path d="m58.2 73.6v-.8c0-3.2-2-5.8-4.9-3.7-2 1.5-3.2 4.2-1.5 5.6.5.4 1.2.5 1.8.4h10.1v-1.5c.4 1 1.3 1.6 2.3 1.5h5v-1.5c.4 1 1.3 1.6 2.3 1.5h6.3c1.5 0 1.7-.9 1.7-1.5.3 1 1.3 1.6 2.3 1.5h5.1v-1.5c.3 1 1.3 1.6 2.3 1.5h4.8v-12h-1.9v10.5h-3.1c-1.1.1-2-.7-2.1-1.8 0-.1 0-.3 0-.4v-1.9h-2v4.1h-3.4c-1.1 0-2.1-.9-2.1-2.1-.2-1.5-.9-3.8-3-3.8-1.2 0-3 .8-2.6 2.8.4 1.3 1.3 2.4 2.6 3.1h-5.2c-1.1.1-2-.7-2.1-1.8 0-.1 0-.3 0-.4v-1.9h-1.9v4.1h-3.3c-1.1.1-2-.7-2.1-1.8 0-.1 0-.3 0-.4v-1.9h-1.9v4.1zm19.1-4c2-1.2 2.6 2.8 2.6 4-2.6-1.4-3.7-3.3-2.6-4m-21.2 4h-1.2c-2.8 0-2.5-2.8-.9-4 1.4-1.1 2.2.7 2.2 3z"/><path d="m41.6 57.9h1.9v1.8h-1.9z"/><path d="m125.1 45.3h1.9v1.7h-1.9z"/><path d="m122.2 45.3h1.9v1.7h-1.9z"/><path d="m55.4 64.4h1.9v1.7h-1.9z"/><path d="m69.1 66.1h1.9v1.8h-1.9z"/><path d="m52.5 64.4h1.9v1.7h-1.9z"/><path d="m78.6 64.4h1.9v1.7h-1.9z"/><path d="m75.7 64.4h1.9v1.7h-1.9z"/><path d="m88.2 66.1h1.9v1.8h-1.9z"/><path d="m85.3 66.1h1.9v1.8h-1.9z"/><path d="m63.3 77h1.9v1.7h-1.9z"/><path d="m60.4 77h1.9v1.7h-1.9z"/><path d="m163 57.9h1.9v1.8h-1.9z"/><path d="m127.8 73.4v-3.2c0-1.3-.4-2.4-1.2-2.7-1.1-.3-1.7.9-2.1 2.2-.2.6-.5 1.6-.7 2.3 1.3.4 2.7.8 4 1.4m-.8-6.7c2.2 0 2.8 2.3 2.8 4.7v2.2c0 .7-.2 2.1-1.6 1.5-1.7-.7-4.2-2-5.2-1.3-.7.5-.6 1.2-.6 2.8v3.7c0 1.7-.8 2.7-1.9 2.7v-7.5c-.1-1.2.4-2.4 1.4-3.1l.1-.1c.9-2.1 1.7-5.6 5-5.6"/><path d="m.2 88.7h1.7v4.6l3.4-4.6h1.6l-3.6 4.7 4 5.6h-1.9l-3.5-5v5h-1.7z"/><path d="m8.6 99h1.5v-7.1h-1.5zm-.1-8.8h1.6v-1.5h-1.6z"/><path d="m12.5 91.9h1.5v1.7c.4-1.1 1.4-1.8 2.5-1.8 1 0 1.8.9 1.8 1.9v.2 5.1h-1.5v-4.4c0-.9-.1-1.7-.9-1.7-1.5 0-1.9 2.3-1.9 3.2v2.9h-1.5z"/><path d="m26.2 98.8c0 2-.6 3.6-3.5 3.6-.7 0-1.3-.1-2-.3v-1.5c.7.5 1.5.8 2.3.9 1.6 0 1.8-1.1 1.8-2.7v-.8c-.4.7-1.1 1.1-1.8 1-1.9 0-2.7-1.5-2.7-3.6s.6-3.6 2.7-3.6c.8 0 1.6.5 1.8 1.3v-1.2h1.5zm-3-.7c1.3 0 1.4-1.5 1.4-2.7s-.2-2.8-1.4-2.8-1.4 1.5-1.4 2.7.2 2.8 1.4 2.8"/><path d="m35.2 88.7h1.7l3.4 10.3h-1.7l-.9-3.1h-3.6l-.9 3.1h-1.5zm-.7 6.3h2.9l-1.4-4.8z"/><path d="m43 92.9c.4-.7 1.2-1.2 2-1.1 1.9 0 2.7 1.6 2.7 3.7 0 2.6-1.3 3.7-3.2 3.7-2.8 0-3-1.9-3-3.7v-6.8h1.5zm1.5 5.7c1.2 0 1.5-1.6 1.5-3.1 0-1.2-.3-2.9-1.5-2.9s-1.5 1.5-1.5 2.9c.1 1.8.3 3 1.5 3.1"/><path d="m53.5 97.8c-.3.8-1 1.3-1.8 1.3-2 0-2.7-1.7-2.7-3.7s.8-3.7 2.7-3.7c.8 0 1.5.4 1.8 1.1v-4.2h1.5v10.4h-1.5zm-1.4.4c1.2 0 1.4-1.6 1.4-2.8s-.1-2.9-1.4-2.9-1.4 1.6-1.4 2.9.2 2.8 1.4 2.8"/><path d="m61.7 97.3c-.4 1.1-1.4 1.8-2.5 1.9-1 0-1.8-.9-1.8-1.9 0-.1 0-.1 0-.2v-5.2h1.5v4.4c0 .9.1 1.7.9 1.7 1.5 0 1.9-2.3 1.9-3.2v-2.9h1.5v7.1h-1.5z"/><path d="m65.6 88.7h1.5v10.3h-1.5z"/><path d="m69.5 88.7h1.5v10.3h-1.5z"/><path d="m77 98c-.4.7-1.2 1.2-2 1.2-1 .1-1.9-.6-2-1.7v-.1c0-2.2 3-2.3 4-2.3v-.6c0-.8 0-2.1-1-2.1s-1.1.7-1.1 1.6h-1.6c.1-1.1.5-2.2 2.7-2.2s2.5 1.3 2.5 2.7v4.5h-1.5zm0-2.3c-.6 0-2.3.2-2.3 1.5 0 .6.4 1.1.9 1.1.9-.1 1.5-.8 1.5-1.7v-.9z"/><path d="m80.7 88.7h1.5v4.9c.4-1.1 1.4-1.8 2.5-1.8 1 0 1.8.9 1.8 1.9v.2 5.1h-1.5v-4.4c0-.9-.1-1.7-.9-1.7-1.5 0-1.9 2.3-1.9 3.2v2.9h-1.5z"/><path d="m100.1 95.3c0 1.9-.3 3.8-3.5 3.8s-3.5-1.9-3.5-3.8v-6.6h1.6v6.6c0 1.6.1 2.9 1.8 2.9s1.8-1.3 1.8-2.9v-6.6h1.6v6.6z"/><path d="m102.4 91.9h1.5v1.7c.4-1.1 1.4-1.8 2.5-1.8 1 0 1.8.9 1.8 1.9v.2 5.1h-1.5v-4.4c0-.9-.1-1.7-.9-1.7-1.5 0-1.9 2.3-1.9 3.2v2.9h-1.5z"/><path d="m110.6 99h1.5v-7.1h-1.5zm-.1-8.8h1.6v-1.5h-1.6z"/><path d="m113.4 91.9h1.6l1.8 5.1h.1l1.7-5.1h1.3l-2.5 7.1h-1.3z"/><path d="m126.3 98.8c-.7.3-1.4.4-2.1.4-2 0-3.5-1.2-3.5-4 0-2 .8-3.4 3-3.4s2.7 1.5 2.7 2.9h-4.2c0 1.4.6 3.7 2.8 3.7.5 0 .9-.1 1.4-.3zm-1.3-4.8c0-.6-.2-1.6-1.3-1.6s-1.4 1.2-1.4 1.6z"/><path d="m128.2 91.9h1.5v1.8c.5-.9 1-1.9 2.3-2v1.6c-1.4.1-2.3.5-2.3 2.4v3.3h-1.5z"/><path d="m137.1 93.3c-.5-.4-1.1-.7-1.8-.7-.5 0-1 .2-1 .8 0 1.3 3.2 1.4 3.2 3.7 0 1.5-1.2 2.2-2.7 2.2-.6 0-1.3-.1-1.9-.3v-1.4c.6.4 1.3.7 2 .8.9 0 1.2-.4 1.2-.9 0-1.2-3.2-1.5-3.2-3.5 0-1.1.7-2 2.5-2 .6 0 1.1.1 1.7.3z"/><path d="m139.2 99h1.5v-7.1h-1.5zm0-8.8h1.6v-1.5h-1.6z"/><path d="m146.9 99.1c-.3.1-.7.1-1 .1-1.4 0-2.2-.4-2.2-1.8v-4.7h-1.1v-.8h1.1v-1.7l1.5-.9v2.6h2v.8h-2v4.1c0 1 .1 1.6 1.1 1.6.2 0 .5 0 .7-.1z"/><path d="m150.1 99.1-2.7-7.2h1.6l1.8 5.1h.1l1.6-5.1h1.5l-3.7 10.3h-1.2z"/><path d="m157.5 95.5c0-2.4 1-3.7 3.1-3.7s3.1 1.3 3.1 3.7-1.1 3.7-3.1 3.7-3.1-1.3-3.1-3.7m3.1 3c1.4 0 1.5-1.8 1.5-3.1s-.2-3.1-1.5-3.1-1.5 1.8-1.5 3.1.2 3.1 1.5 3.1"/><path d="m166.1 92.7h-1.2v-.8h1.2v-.7c0-1.3.3-2.7 2.7-2.7.5 0 1 .1 1.5.2v1c-.4-.2-.9-.3-1.3-.3-1.2 0-1.4.9-1.4 1.6v.8h2v.8h-2v6.4h-1.5z"/><path d="m28.3 107.9c-.8-.4-1.7-.7-2.5-.7-.9 0-1.5.5-1.5 1.3 0 2.2 4.9 2.1 4.9 5.3 0 2.2-1.7 3-3.7 3-.9 0-1.8-.1-2.6-.4v-1.6c.9.5 1.9.8 2.9.9 1.1 0 1.9-.4 1.9-1.5 0-2.4-4.9-2.2-4.9-5.4 0-1.7 1.2-2.6 3.4-2.6.8 0 1.6.1 2.4.3z"/><path d="m35.5 116.5c-.6.2-1.3.3-1.9.3-2.2 0-3.6-1.3-3.6-4 0-2.1 1-3.4 3-3.4s2.5 1 2.5 2.5h-1.6c0-.8-.1-1.8-1-1.8s-1.3 1-1.3 2.3c0 1.7.7 3.7 2.5 3.7.4 0 .9-.1 1.3-.3z"/><path d="m37.2 116.7h1.5v-7.1h-1.5zm-.1-8.8h1.6v-1.5h-1.6z"/><path d="m46.2 116.5c-.7.3-1.4.4-2.1.4-2 0-3.5-1.2-3.5-4 0-2 .8-3.4 3-3.4s2.7 1.5 2.7 2.9h-4.3c0 1.4.6 3.7 2.8 3.7.5 0 .9-.1 1.4-.3zm-1.4-4.8c0-.6-.2-1.6-1.3-1.6s-1.4 1.2-1.4 1.6z"/><path d="m48 109.6h1.5v1.7c.4-1.1 1.4-1.8 2.5-1.8 1 0 1.8.9 1.8 1.9v.2 5.2h-1.5v-4.4c0-.9-.1-1.7-.9-1.7-1.5 0-1.9 2.3-1.9 3.2v2.9h-1.5z"/><path d="m61.1 116.5c-.6.2-1.2.3-1.9.3-2.2 0-3.6-1.3-3.6-4 0-2.1 1-3.4 3-3.4s2.5 1 2.5 2.5h-1.6c0-.8-.1-1.8-1-1.8s-1.3 1-1.3 2.3c0 1.7.7 3.7 2.6 3.7.4 0 .9-.1 1.3-.3z"/><path d="m67.7 116.5c-.7.3-1.4.4-2.1.4-2 0-3.5-1.2-3.5-4 0-2 .8-3.4 3-3.4s2.7 1.5 2.7 2.9h-4.2c0 1.4.6 3.7 2.8 3.7.5 0 .9-.1 1.3-.3zm-1.3-4.8c0-.6-.2-1.6-1.3-1.6s-1.4 1.2-1.4 1.6z"/><path d="m77.4 115.7c-.4.7-1.2 1.1-2 1.1-1 .1-1.9-.7-1.9-1.7 0 0 0 0 0-.1 0-2.2 3-2.3 4-2.3v-.6c0-.8 0-2.1-1-2.1s-1.1.7-1.2 1.6h-1.6c.1-1.1.5-2.2 2.7-2.2s2.5 1.3 2.5 2.7v4.6h-1.5zm0-2.3c-.6 0-2.3.2-2.3 1.5 0 .7.4 1.1.9 1.1.9-.1 1.5-.8 1.4-1.7z"/><path d="m81.2 109.6h1.5v1.7c.4-1.1 1.4-1.8 2.5-1.8 1 0 1.8.9 1.8 1.9v.2 5.2h-1.5v-4.4c0-.9-.1-1.7-.9-1.7-1.5 0-1.9 2.3-1.9 3.2v2.9h-1.5z"/><path d="m93.4 115.6c-.3.8-1 1.3-1.8 1.3-2 0-2.7-1.7-2.7-3.7s.8-3.7 2.7-3.7c.8 0 1.5.4 1.8 1.2v-4.2h1.5v10.3h-1.5zm-1.5.3c1.2 0 1.4-1.6 1.4-2.8s-.1-2.8-1.4-2.8-1.4 1.6-1.4 2.8.2 2.8 1.4 2.8"/><path d="m102.8 107.4h-2.5v-1h6.6v1h-2.5v9.3h-1.6z"/><path d="m112.7 116.5c-.7.3-1.4.4-2.1.4-2 0-3.5-1.2-3.5-4 0-2 .8-3.4 3-3.4s2.7 1.5 2.7 2.9h-4.2c0 1.4.6 3.7 2.8 3.7.5 0 .9-.1 1.4-.3zm-1.4-4.8c0-.6-.2-1.6-1.3-1.6s-1.4 1.2-1.4 1.6z"/><path d="m119.5 116.5c-.6.2-1.2.3-1.9.3-2.2 0-3.6-1.3-3.6-4 0-2.1 1-3.4 3-3.4s2.6 1 2.6 2.5h-1.6c0-.8-.1-1.8-1-1.8s-1.3 1-1.3 2.3c0 1.7.7 3.7 2.6 3.7.4 0 .9-.1 1.3-.3z"/><path d="m121 106.4h1.5v4.9c.4-1.1 1.4-1.8 2.5-1.8 1 0 1.8.9 1.8 1.9v.2 5.2h-1.5v-4.4c0-.9-.1-1.7-.9-1.7-1.5 0-1.9 2.3-1.9 3.2v2.9h-1.5z"/><path d="m129.2 109.6h1.5v1.7c.4-1.1 1.4-1.8 2.5-1.8 1 0 1.8.9 1.8 1.9v.2 5.2h-1.5v-4.4c0-.9-.1-1.7-.9-1.7-1.5 0-1.9 2.3-1.9 3.2v2.9h-1.5z"/><path d="m136.8 113.2c0-2.4 1-3.7 3.1-3.7s3.1 1.3 3.1 3.7-1.1 3.7-3.1 3.7-3.1-1.3-3.1-3.7m3.1 3.1c1.4 0 1.5-1.8 1.5-3.1s-.2-3.1-1.5-3.1-1.5 1.8-1.5 3.1.2 3.1 1.5 3.1"/><path d="m144.9 106.4h1.5v10.3h-1.5z"/><path d="m148.4 113.2c0-2.4 1-3.7 3.1-3.7s3.1 1.3 3.1 3.7-1.1 3.7-3.1 3.7-3.1-1.3-3.1-3.7m3.1 3.1c1.3 0 1.5-1.8 1.5-3.1s-.2-3.1-1.5-3.1-1.5 1.8-1.5 3.1.1 3.1 1.5 3.1"/><path d="m162 116.5c0 2-.6 3.6-3.5 3.6-.7 0-1.3-.1-2-.3v-1.5c.7.5 1.5.8 2.3.9 1.6 0 1.8-1.1 1.8-2.7v-.8c-.4.7-1.1 1.1-1.9 1-1.9 0-2.7-1.5-2.7-3.6s.6-3.6 2.7-3.6c.8 0 1.6.5 1.9 1.3v-1.2h1.5v6.9zm-3-.6c1.3 0 1.4-1.5 1.4-2.7s-.2-2.8-1.4-2.8-1.4 1.5-1.4 2.7.2 2.8 1.4 2.8"/><path d="m165.9 116.8-2.7-7.2h1.6l1.8 5.1h.1l1.6-5.1h1.5l-3.7 10.3h-1.2z"/></g><path d="m229.8 52.8c1.4-2.1 2.1-4.7 2-7.3 0-1.6-.2-3.2-.7-4.8-1.6 1.4-2.5 3.4-2.5 5.5.1 2.3.5 4.5 1.2 6.6" fill="#f09021"/><path d="m247 35.7c.5 2.6.7 5.2.7 7.8 0 9.7-1.9 16.6-4.8 21.6.5.1 1 .1 1.5.1 13.6 0 16.5-12.6 16.5-18.1 0-8.9-9-11.2-13.9-11.4" fill="#f09021"/><path d="m233.3 45.6c.1 3.2-.9 6.3-2.9 8.8.5 1.3 1.2 2.5 1.9 3.7 2.7-3.1 4-7.5 4-13.2 0-2.3-.4-4.6-1.1-6.7-1 .5-1.9 1-2.8 1.7.6 1.7.9 3.7.9 5.7" fill="#f09021"/><path d="m238 44.9c0 7-1.9 11.6-4.7 14.6.7.9 1.6 1.7 2.5 2.5 3-3.8 5-9.4 5-17.8 0-2.6-.3-5.1-1-7.6-1 .3-2 .6-2.9.9.7 2.3 1.2 4.8 1.1 7.4" fill="#f09021"/><path d="m242.9 44.2c0 9-2.2 15-5.4 19.1.9.6 1.9 1 2.9 1.3 2.9-4.7 4.8-11.5 4.8-21.1 0-2.6-.3-5.2-.8-7.8-.8.1-1.7.2-2.7.4.8 2.6 1.2 5.3 1.2 8.1" fill="#f09021"/><path d="m215.7 23.8c7.5 0 13.7 2.9 17.7 7.6.8-1.1 1.5-2.3 2.1-3.5-3.6-4.5-9.1-7.5-16.6-7.5-6.1.2-12.1 1.3-17.9 3.4.1.8.4 1.6.8 2.3 4.5-1.5 9.2-2.3 13.9-2.3" fill="#efb61d"/><path d="m237.5 18c-.5-6.8-4.1-18-16.6-18-9.7 0-15.5 9.1-18.2 16.1 6.3-2 12.8-3.1 19.3-3.2 5.6-.2 11.1 1.6 15.5 5.1" fill="#efb61d"/><path d="m204.9 30c2.5-.6 5.1-.8 7.7-.8 4.2 0 12.3.8 17 5.9 1-.7 1.9-1.4 2.7-2.3-3.6-4.5-9.5-7.3-16.6-7.3-4.4 0-8.8.7-13.1 2.1.7.9 1.5 1.7 2.3 2.4" fill="#efb61d"/><path d="m228.3 35.8c-4.4-4.5-11.8-5.2-15.6-5.2-2.1 0-4.2.2-6.2.5 4.8 3.5 11.7 6 16.2 6 1.8.1 3.8-.3 5.6-1.3" fill="#efb61d"/><path d="m218.9 18.3c7.8 0 13.6 3 17.5 7.5.5-1.5.9-3 1.1-4.6-3.4-3.5-8.4-5.9-15.5-5.9-6.9.2-13.8 1.5-20.3 3.7-.2.8-.4 1.7-.6 2.5 5.7-2 11.7-3.1 17.8-3.2" fill="#efb61d"/><path d="m186.2 37.2c0-5.7 3.6-9.8 8.6-12.8-.7-.5-1.5-.9-2.3-1.1-4.7 3-7.9 7.1-7.9 12.3 0 4.7 1.7 10.7 4.8 16.5.5 0 1-.1 1.5-.3-3-5.1-4.7-10.5-4.7-14.6" fill="#cccd2b"/><path d="m190.2 38.8c0-4.9 3.2-8.4 7.5-10.8-.3-.7-.8-1.4-1.3-2-4.7 2.6-8.1 6.2-8.1 11.3 0 3.9 1.6 8.9 4.4 13.8.5-.4.9-.7 1.3-1.2-2.4-4-3.7-8-3.8-11.1" fill="#cccd2b"/><path d="m189.2 22.6c-.6-.1-1.2-.1-1.8-.1-5.7 0-17.9 4.7-17.9 13.4 0 9.3 10.3 15 17 16.1-2.9-5.9-4.5-11.8-4.5-16.4.1-5.4 2.9-9.7 7.2-13" fill="#cccd2b"/><path d="m194.1 40.3c0-3.2 1.7-6 4.7-7.9 0-1-.2-2-.5-2.9-3.8 2.1-6.4 5.1-6.4 9.2.2 3.4 1.3 6.7 3.1 9.7.4-.6.7-1.3 1-1.9-1.1-1.9-1.8-4-1.9-6.2" fill="#cccd2b"/><path d="m195.6 40.3c.1 1.6.5 3.1 1.2 4.5 1.2-3.4 1.9-7 2.1-10.6-2.1 1.4-3.3 3.7-3.3 6.1" fill="#cccd2b"/><path d="m217.3 59c-6.2-.1-12.1-2.5-16.5-6.7-.8.3-1.5.6-2.2 1 4.7 5.5 11.6 10 19.9 10 3.5.1 6.9-.6 10-2.1-.5-1.4-1.2-2.7-2.1-3.8-3 1.1-6 1.7-9.1 1.6" fill="#07a6aa"/><path d="m190.7 58.8c-2.9 2.9-4.7 6.1-4.7 9.4 0 12.6 19.6 19.7 27.2 19.7 9 0 13.2-5.7 15-11.7-2.5.6-5.1.9-7.7.9-12.6-.1-23-8.4-29.8-18.3" fill="#07a6aa"/><path d="m210.1 50.3c-2.7 0-5.3.5-7.8 1.4 4.1 3.7 9.5 5.8 15 5.8 2.7.1 5.4-.4 7.9-1.3-4.8-4.9-12.3-5.9-15.1-5.9" fill="#07a6aa"/><path d="m218.4 65c-8.9 0-16.4-5-21.4-10.9-.6.3-1.1.6-1.7 1 5.5 7.5 14 13.8 24.1 13.8 3.4.1 6.8-.6 9.9-1.9 0-1.4-.2-2.8-.5-4.1-3.3 1.4-6.8 2.2-10.4 2.1" fill="#07a6aa"/><path d="m219.4 71c-10.8 0-19.9-6.8-25.8-14.8-.4.3-.8.7-1.2 1 6.4 9.4 16.2 17.3 28.1 17.3 2.8 0 5.6-.4 8.3-1.2.3-1.4.4-2.8.5-4.2-3.1 1.3-6.5 1.9-9.9 1.9" fill="#07a6aa"/></svg>